<mxfile host="Electron" modified="2023-10-21T17:00:32.967Z" agent="Mozilla/5.0 (Windows NT 10.0; Win64; x64) AppleWebKit/537.36 (KHTML, like Gecko) draw.io/22.0.2 Chrome/114.0.5735.289 Electron/25.8.4 Safari/537.36" etag="WCSPXjPWc9ia8kwGNa2D" version="22.0.2" type="device">
  <diagram name="Page-1" id="2YBvvXClWsGukQMizWep">
    <mxGraphModel dx="498" dy="579" grid="1" gridSize="10" guides="1" tooltips="1" connect="1" arrows="1" fold="1" page="1" pageScale="1" pageWidth="850" pageHeight="1100" math="0" shadow="0">
      <root>
        <mxCell id="0" />
        <mxCell id="1" parent="0" />
        <mxCell id="jJ2E1BAoAZqyhSgXUfaf-99" value="" style="endArrow=none;dashed=1;html=1;rounded=0;" edge="1" parent="1" target="jJ2E1BAoAZqyhSgXUfaf-95">
          <mxGeometry width="50" height="50" relative="1" as="geometry">
            <mxPoint x="85" y="560" as="sourcePoint" />
            <mxPoint x="85.24198440494285" y="170" as="targetPoint" />
          </mxGeometry>
        </mxCell>
        <mxCell id="SB4TEwUQo2XcKW8rI5Qr-15" value="" style="rounded=0;whiteSpace=wrap;html=1;" parent="1" vertex="1">
          <mxGeometry x="335" y="180" width="10" height="330" as="geometry" />
        </mxCell>
        <mxCell id="SB4TEwUQo2XcKW8rI5Qr-1" value="User" style="shape=umlActor;verticalLabelPosition=bottom;verticalAlign=top;html=1;outlineConnect=0;" parent="1" vertex="1">
          <mxGeometry x="70" y="90" width="30" height="60" as="geometry" />
        </mxCell>
        <mxCell id="SB4TEwUQo2XcKW8rI5Qr-2" value=":System" style="rounded=0;whiteSpace=wrap;html=1;" parent="1" vertex="1">
          <mxGeometry x="280" y="110" width="120" height="60" as="geometry" />
        </mxCell>
        <mxCell id="SB4TEwUQo2XcKW8rI5Qr-3" value=":Database" style="rounded=0;whiteSpace=wrap;html=1;" parent="1" vertex="1">
          <mxGeometry x="559" y="110" width="120" height="60" as="geometry" />
        </mxCell>
        <mxCell id="SB4TEwUQo2XcKW8rI5Qr-4" value="" style="endArrow=none;dashed=1;html=1;rounded=0;entryX=0.511;entryY=0.985;entryDx=0;entryDy=0;entryPerimeter=0;" parent="1" edge="1">
          <mxGeometry width="50" height="50" relative="1" as="geometry">
            <mxPoint x="620" y="189" as="sourcePoint" />
            <mxPoint x="620.32" y="170.10000000000002" as="targetPoint" />
          </mxGeometry>
        </mxCell>
        <mxCell id="SB4TEwUQo2XcKW8rI5Qr-5" value="" style="endArrow=none;dashed=1;html=1;rounded=0;" parent="1" source="SB4TEwUQo2XcKW8rI5Qr-15" target="SB4TEwUQo2XcKW8rI5Qr-2" edge="1">
          <mxGeometry width="50" height="50" relative="1" as="geometry">
            <mxPoint x="339.52" y="581.5237862723214" as="sourcePoint" />
            <mxPoint x="339.52" y="170" as="targetPoint" />
          </mxGeometry>
        </mxCell>
        <mxCell id="SB4TEwUQo2XcKW8rI5Qr-6" value="" style="endArrow=none;dashed=1;html=1;rounded=0;" parent="1" source="jJ2E1BAoAZqyhSgXUfaf-95" edge="1">
          <mxGeometry width="50" height="50" relative="1" as="geometry">
            <mxPoint x="85" y="560" as="sourcePoint" />
            <mxPoint x="85.24198440494285" y="170" as="targetPoint" />
          </mxGeometry>
        </mxCell>
        <mxCell id="SB4TEwUQo2XcKW8rI5Qr-8" value="" style="endArrow=classic;html=1;rounded=0;exitX=1;exitY=0.25;exitDx=0;exitDy=0;entryX=-0.057;entryY=0.046;entryDx=0;entryDy=0;entryPerimeter=0;" parent="1" edge="1">
          <mxGeometry width="50" height="50" relative="1" as="geometry">
            <mxPoint x="90" y="197.5" as="sourcePoint" />
            <mxPoint x="334.42999999999995" y="196.96000000000004" as="targetPoint" />
          </mxGeometry>
        </mxCell>
        <mxCell id="SB4TEwUQo2XcKW8rI5Qr-9" value="View current promotion and offers" style="text;html=1;align=center;verticalAlign=middle;resizable=0;points=[];autosize=1;strokeColor=none;fillColor=none;" parent="1" vertex="1">
          <mxGeometry x="100" y="172" width="200" height="30" as="geometry" />
        </mxCell>
        <mxCell id="SB4TEwUQo2XcKW8rI5Qr-13" value="Alt" style="shape=umlFrame;whiteSpace=wrap;html=1;pointerEvents=0;" parent="1" vertex="1">
          <mxGeometry x="10" y="285" width="690" height="140" as="geometry" />
        </mxCell>
        <mxCell id="SB4TEwUQo2XcKW8rI5Qr-14" value="" style="endArrow=none;dashed=1;html=1;rounded=0;exitX=-0.001;exitY=0.537;exitDx=0;exitDy=0;exitPerimeter=0;" parent="1" edge="1">
          <mxGeometry width="50" height="50" relative="1" as="geometry">
            <mxPoint x="9.309999999999945" y="365.80999999999995" as="sourcePoint" />
            <mxPoint x="700" y="366" as="targetPoint" />
          </mxGeometry>
        </mxCell>
        <mxCell id="SB4TEwUQo2XcKW8rI5Qr-16" value="" style="endArrow=none;dashed=1;html=1;rounded=0;entryX=0.5;entryY=1;entryDx=0;entryDy=0;" parent="1" source="SB4TEwUQo2XcKW8rI5Qr-36" target="SB4TEwUQo2XcKW8rI5Qr-15" edge="1">
          <mxGeometry width="50" height="50" relative="1" as="geometry">
            <mxPoint x="340" y="543" as="sourcePoint" />
            <mxPoint x="340" y="653" as="targetPoint" />
          </mxGeometry>
        </mxCell>
        <mxCell id="SB4TEwUQo2XcKW8rI5Qr-24" value="Valid &lt;br&gt;Promotion" style="text;html=1;align=center;verticalAlign=middle;resizable=0;points=[];autosize=1;strokeColor=none;fillColor=none;" parent="1" vertex="1">
          <mxGeometry x="4" y="323" width="80" height="40" as="geometry" />
        </mxCell>
        <mxCell id="SB4TEwUQo2XcKW8rI5Qr-35" value="" style="shape=umlDestroy;whiteSpace=wrap;html=1;strokeWidth=3;targetShapes=umlLifeline;" parent="1" vertex="1">
          <mxGeometry x="69.99999999999999" y="564" width="30" height="30" as="geometry" />
        </mxCell>
        <mxCell id="SB4TEwUQo2XcKW8rI5Qr-36" value="" style="shape=umlDestroy;whiteSpace=wrap;html=1;strokeWidth=3;targetShapes=umlLifeline;" parent="1" vertex="1">
          <mxGeometry x="325" y="564" width="30" height="30" as="geometry" />
        </mxCell>
        <mxCell id="SB4TEwUQo2XcKW8rI5Qr-37" value="" style="shape=umlDestroy;whiteSpace=wrap;html=1;strokeWidth=3;targetShapes=umlLifeline;" parent="1" vertex="1">
          <mxGeometry x="604.01" y="565" width="30" height="30" as="geometry" />
        </mxCell>
        <mxCell id="SB4TEwUQo2XcKW8rI5Qr-41" value="" style="endArrow=none;dashed=1;html=1;rounded=0;" parent="1" source="SB4TEwUQo2XcKW8rI5Qr-7" edge="1">
          <mxGeometry width="50" height="50" relative="1" as="geometry">
            <mxPoint x="618" y="560" as="sourcePoint" />
            <mxPoint x="620" y="190" as="targetPoint" />
          </mxGeometry>
        </mxCell>
        <mxCell id="SB4TEwUQo2XcKW8rI5Qr-56" value="" style="rounded=0;whiteSpace=wrap;html=1;rotation=90;" parent="1" vertex="1">
          <mxGeometry x="64.13" y="322.35" width="43.74" height="10" as="geometry" />
        </mxCell>
        <mxCell id="jJ2E1BAoAZqyhSgXUfaf-1" value="" style="rounded=0;whiteSpace=wrap;html=1;" vertex="1" parent="1">
          <mxGeometry x="81" y="375" width="10" height="40" as="geometry" />
        </mxCell>
        <mxCell id="jJ2E1BAoAZqyhSgXUfaf-84" value="" style="endArrow=open;endSize=12;dashed=1;html=1;rounded=0;exitX=0.949;exitY=0.122;exitDx=0;exitDy=0;exitPerimeter=0;entryX=1.06;entryY=0.101;entryDx=0;entryDy=0;entryPerimeter=0;" edge="1" parent="1">
          <mxGeometry width="160" relative="1" as="geometry">
            <mxPoint x="330" y="398" as="sourcePoint" />
            <mxPoint x="92" y="397" as="targetPoint" />
          </mxGeometry>
        </mxCell>
        <mxCell id="jJ2E1BAoAZqyhSgXUfaf-91" value="" style="endArrow=classic;html=1;rounded=0;exitX=1;exitY=0.25;exitDx=0;exitDy=0;" edge="1" parent="1">
          <mxGeometry width="50" height="50" relative="1" as="geometry">
            <mxPoint x="348" y="215.5" as="sourcePoint" />
            <mxPoint x="613" y="215" as="targetPoint" />
          </mxGeometry>
        </mxCell>
        <mxCell id="jJ2E1BAoAZqyhSgXUfaf-92" value="Process Request" style="text;html=1;align=center;verticalAlign=middle;resizable=0;points=[];autosize=1;strokeColor=none;fillColor=none;" vertex="1" parent="1">
          <mxGeometry x="400" y="190" width="110" height="30" as="geometry" />
        </mxCell>
        <mxCell id="jJ2E1BAoAZqyhSgXUfaf-93" value="" style="endArrow=open;endSize=12;dashed=1;html=1;rounded=0;entryX=1.06;entryY=0.101;entryDx=0;entryDy=0;entryPerimeter=0;" edge="1" parent="1">
          <mxGeometry width="160" relative="1" as="geometry">
            <mxPoint x="620" y="247" as="sourcePoint" />
            <mxPoint x="345" y="246.5" as="targetPoint" />
          </mxGeometry>
        </mxCell>
        <mxCell id="jJ2E1BAoAZqyhSgXUfaf-94" value="Return Process Request" style="text;html=1;align=center;verticalAlign=middle;resizable=0;points=[];autosize=1;strokeColor=none;fillColor=none;" vertex="1" parent="1">
          <mxGeometry x="380" y="222" width="150" height="30" as="geometry" />
        </mxCell>
        <mxCell id="jJ2E1BAoAZqyhSgXUfaf-96" value="" style="endArrow=none;dashed=1;html=1;rounded=0;" edge="1" parent="1" target="SB4TEwUQo2XcKW8rI5Qr-7">
          <mxGeometry width="50" height="50" relative="1" as="geometry">
            <mxPoint x="618" y="560" as="sourcePoint" />
            <mxPoint x="620" y="190" as="targetPoint" />
          </mxGeometry>
        </mxCell>
        <mxCell id="SB4TEwUQo2XcKW8rI5Qr-7" value="" style="rounded=0;whiteSpace=wrap;html=1;" parent="1" vertex="1">
          <mxGeometry x="614" y="202" width="10" height="68" as="geometry" />
        </mxCell>
        <mxCell id="jJ2E1BAoAZqyhSgXUfaf-98" value="InValid &lt;br&gt;Restaurant" style="text;html=1;align=center;verticalAlign=middle;resizable=0;points=[];autosize=1;strokeColor=none;fillColor=none;" vertex="1" parent="1">
          <mxGeometry x="5" y="373" width="80" height="40" as="geometry" />
        </mxCell>
        <mxCell id="jJ2E1BAoAZqyhSgXUfaf-95" value="" style="rounded=0;whiteSpace=wrap;html=1;" vertex="1" parent="1">
          <mxGeometry x="81" y="185" width="10" height="30" as="geometry" />
        </mxCell>
        <mxCell id="jJ2E1BAoAZqyhSgXUfaf-105" value="" style="endArrow=open;endSize=12;dashed=1;html=1;rounded=0;entryX=1.06;entryY=0.101;entryDx=0;entryDy=0;entryPerimeter=0;" edge="1" parent="1">
          <mxGeometry width="160" relative="1" as="geometry">
            <mxPoint x="332" y="327" as="sourcePoint" />
            <mxPoint x="93" y="326.85" as="targetPoint" />
          </mxGeometry>
        </mxCell>
        <mxCell id="jJ2E1BAoAZqyhSgXUfaf-106" value="Display Promotion and Offers" style="text;html=1;align=center;verticalAlign=middle;resizable=0;points=[];autosize=1;strokeColor=none;fillColor=none;" vertex="1" parent="1">
          <mxGeometry x="111" y="303.35" width="180" height="30" as="geometry" />
        </mxCell>
        <mxCell id="jJ2E1BAoAZqyhSgXUfaf-107" value="Promotion Not Found" style="text;html=1;align=center;verticalAlign=middle;resizable=0;points=[];autosize=1;strokeColor=none;fillColor=none;" vertex="1" parent="1">
          <mxGeometry x="131" y="374.35" width="140" height="30" as="geometry" />
        </mxCell>
      </root>
    </mxGraphModel>
  </diagram>
</mxfile>
